<svg aria-hidden="true" style="position: absolute; width: 0; height: 0; overflow: hidden;" version="1.1"
    xmlns="http://www.w3.org/2000/svg"
    xmlns:xlink="http://www.w3.org/1999/xlink">
    <defs>
        <symbol id="icon-logo" viewBox="0 0 123 32">
            <path fill="#fff" style="fill: var(--color1, #fff)" d="M32.009 30.933h-4.88v-17.793l-8.584 16.896c-0.197 0.414-0.504 0.749-0.884 0.974l-0.010 0.006c-0.342 0.209-0.755 0.333-1.198 0.333-0.004 0-0.009 0-0.013-0h0.001c-0.423 0-0.82-0.112-1.193-0.334-0.36-0.222-0.645-0.548-0.856-0.979l-8.623-16.895v17.792h-4.842v-27.563c0-0.625 0.162-1.18 0.485-1.666 0.335-0.486 0.77-0.813 1.303-0.98 0.26-0.069 0.522-0.090 0.782-0.062 0.261 0.014 0.51 0.077 0.745 0.188 0.249 0.097 0.472 0.243 0.67 0.437 0.2 0.18 0.367 0.403 0.504 0.667l11.024 21.436 11.025-21.436c0.285-0.528 0.677-0.903 1.173-1.125 0.274-0.125 0.595-0.198 0.933-0.198 0.232 0 0.455 0.034 0.666 0.098l-0.016-0.004c0.522 0.166 0.95 0.493 1.285 0.979s0.503 1.041 0.503 1.666v27.563zM58.62 15.87c0 0.75-0.117 1.563-0.353 2.438-0.258 0.922-0.654 1.727-1.17 2.439l0.015-0.022c-0.52 0.736-1.21 1.354-2.067 1.854-0.844 0.5-1.874 0.75-3.091 0.75h-8.734v-5.146h8.734c0.658 0 1.167-0.222 1.527-0.667 0.36-0.458 0.54-1.020 0.54-1.687 0-0.709-0.205-1.264-0.614-1.667-0.358-0.373-0.86-0.604-1.417-0.604-0.013 0-0.025 0-0.038 0l0.002-0h-8.734c-0.658 0-1.167 0.23-1.527 0.687-0.36 0.445-0.54 1-0.54 1.667v7.563c0 0.722 0.198 1.284 0.596 1.687 0.41 0.403 0.912 0.604 1.508 0.604h8.697v5.167h-8.734c-0.67 0-1.397-0.132-2.179-0.396-0.834-0.297-1.553-0.729-2.166-1.276l0.007 0.006c-0.658-0.598-1.21-1.369-1.658-2.313-0.447-0.959-0.67-2.118-0.67-3.48v-7.604c0-0.75 0.118-1.555 0.354-2.416 0.251-0.921 0.641-1.727 1.151-2.44l-0.015 0.023c0.553-0.763 1.241-1.39 2.036-1.858l0.031-0.017c0.856-0.5 1.893-0.75 3.11-0.75h8.734c0.67 0 1.39 0.132 2.16 0.396 0.838 0.293 1.558 0.734 2.164 1.296l-0.004-0.004c0.67 0.583 1.23 1.354 1.676 2.312 0.447 0.945 0.67 2.097 0.67 3.458zM80.186 13.829h-8.455v17.104h-4.897v-17.104h-6.295v-5.417h6.295v-7.354h4.897v7.354h8.455v5.417zM102.999 23.475c0 0.75-0.118 1.562-0.354 2.437-0.258 0.922-0.654 1.727-1.17 2.439l0.015-0.022c-0.52 0.736-1.21 1.354-2.067 1.854-0.844 0.5-1.874 0.75-3.091 0.75h-8.734c-0.67 0-1.397-0.132-2.179-0.396-0.834-0.297-1.553-0.729-2.166-1.276l0.007 0.006c-0.658-0.598-1.21-1.369-1.658-2.313-0.447-0.959-0.67-2.118-0.67-3.48 0-0.75 0.118-1.562 0.354-2.437 0.251-0.921 0.641-1.726 1.151-2.439l-0.015 0.023c0.552-0.763 1.241-1.39 2.036-1.858l0.031-0.017c0.857-0.5 1.893-0.75 3.11-0.75h8.734v5.166h-8.734c-0.658 0-1.167 0.23-1.527 0.688-0.36 0.444-0.54 1-0.54 1.666 0 0.709 0.205 1.264 0.614 1.667 0.423 0.389 0.92 0.583 1.49 0.583h8.697c0.658 0 1.167-0.222 1.527-0.666 0.36-0.445 0.54-1 0.54-1.667v-7.563c0-0.708-0.198-1.27-0.596-1.687-0.384-0.417-0.875-0.625-1.471-0.625h-10.633v-5.146h10.633c0.67 0 1.391 0.132 2.16 0.396 0.838 0.293 1.558 0.734 2.164 1.296l-0.004-0.004c0.671 0.583 1.23 1.354 1.676 2.312 0.448 0.945 0.671 2.097 0.671 3.458v7.605zM113.847 3.65c0 0.37-0.041 0.702-0.123 0.993-0.081 0.294-0.196 0.552-0.342 0.788l0.007-0.013c-0.138 0.221-0.299 0.41-0.481 0.57-0.182 0.157-0.374 0.289-0.576 0.393-0.173 0.091-0.374 0.166-0.585 0.216l-0.017 0.003c-0.171 0.042-0.367 0.067-0.569 0.068h-0.001l3.034 2.932h-2.247l-3.028-2.932h-1.044v-1.625h3.285c0.182-0.016 0.348-0.058 0.497-0.125 0.301-0.139 0.532-0.387 0.645-0.691l0.003-0.008c0.060-0.166 0.089-0.356 0.089-0.568v-1.025c0-0.008 0.001-0.018 0.001-0.027 0-0.065-0.012-0.127-0.035-0.183l0.001 0.003c-0.014-0.044-0.042-0.080-0.077-0.106l-0.001-0c-0.027-0.023-0.062-0.039-0.1-0.044l-0.001-0c-0.028-0.004-0.061-0.006-0.095-0.006h-4.794v7.338h-1.452v-8.144c0-0.001 0-0.002 0-0.003 0-0.22 0.078-0.422 0.208-0.579l-0.001 0.002c0.125-0.146 0.31-0.238 0.517-0.238 0.003 0 0.005 0 0.008 0h5.515c0.325 0 0.598 0.067 0.821 0.2 0.223 0.13 0.405 0.294 0.542 0.494 0.142 0.196 0.242 0.408 0.302 0.637 0.063 0.23 0.095 0.444 0.095 0.644v1.038zM122.662 9.6h-6.625c-0.002 0-0.004 0-0.006 0-0.103 0-0.201-0.023-0.288-0.065l0.004 0.002c-0.092-0.043-0.17-0.1-0.236-0.169l-0-0c-0.128-0.155-0.206-0.356-0.206-0.576 0-0.004 0-0.008 0-0.012v0.001-8.144h1.453v7.338h5.904v1.625z"></path>
        </symbol>
    </defs>
</svg>
